<?xml version="1.0" standalone="no"?>
<!DOCTYPE svg PUBLIC "-//W3C//DTD SVG 20010904//EN"
 "http://www.w3.org/TR/2001/REC-SVG-20010904/DTD/svg10.dtd">
<svg version="1.0" xmlns="http://www.w3.org/2000/svg"
 width="15px" height="15px" viewBox="0 0 1024.000000 1024.000000"
 preserveAspectRatio="xMidYMid meet">

<g transform="translate(0.000000,1024.000000) scale(0.100000,-0.100000)"
fill="#000000" stroke="none">
<path d="M5000 9480 c0 -33 3 -40 20 -40 17 0 20 7 20 40 0 33 -3 40 -20 40
-17 0 -20 -7 -20 -40z"/>
<path d="M5143 9360 c0 -47 2 -66 4 -42 2 23 2 61 0 85 -2 23 -4 4 -4 -43z"/>
<path d="M5193 9360 c0 -47 1 -77 4 -67 2 9 11 17 19 17 8 0 14 5 14 10 0 6
-7 10 -15 10 -10 0 -15 16 -18 58 -2 41 -3 34 -4 -28z"/>
<path d="M5210 9400 c0 -29 4 -40 15 -40 11 0 15 11 15 40 0 29 -4 40 -15 40
-11 0 -15 -11 -15 -40z"/>
<path d="M5223 9160 c0 -25 2 -35 4 -22 2 12 2 32 0 45 -2 12 -4 2 -4 -23z"/>
<path d="M5273 9160 c0 -25 2 -35 4 -22 2 12 2 32 0 45 -2 12 -4 2 -4 -23z"/>
<path d="M5383 9080 c0 -25 2 -35 4 -22 2 12 2 32 0 45 -2 12 -4 2 -4 -23z"/>
<path d="M5433 9075 c0 -22 2 -30 4 -17 2 12 2 30 0 40 -3 9 -5 -1 -4 -23z"/>
<path d="M5464 8880 c0 -91 2 -128 3 -82 2 45 2 119 0 165 -1 45 -3 8 -3 -83z"/>
<path d="M5514 8880 c0 -91 2 -128 3 -82 2 45 2 119 0 165 -1 45 -3 8 -3 -83z"/>
<path d="M5543 8840 c0 -25 2 -35 4 -22 2 12 2 32 0 45 -2 12 -4 2 -4 -23z"/>
<path d="M5783 8600 c0 -25 2 -35 4 -22 2 12 2 32 0 45 -2 12 -4 2 -4 -23z"/>
<path d="M5833 8600 c0 -25 2 -35 4 -22 2 12 2 32 0 45 -2 12 -4 2 -4 -23z"/>
<path d="M5863 8560 c0 -47 2 -66 4 -42 2 23 2 61 0 85 -2 23 -4 4 -4 -43z"/>
<path d="M5618 8553 c12 -2 32 -2 45 0 12 2 2 4 -23 4 -25 0 -35 -2 -22 -4z"/>
<path d="M5520 8440 c0 -5 18 -10 40 -10 22 0 40 5 40 10 0 6 -18 10 -40 10
-22 0 -40 -4 -40 -10z"/>
<path d="M5825 8390 c-3 -5 -1 -10 4 -10 6 0 11 5 11 10 0 6 -2 10 -4 10 -3 0
-8 -4 -11 -10z"/>
<path d="M5628 8383 c6 -2 18 -2 25 0 6 3 1 5 -13 5 -14 0 -19 -2 -12 -5z"/>
<path d="M5748 8383 c6 -2 18 -2 25 0 6 3 1 5 -13 5 -14 0 -19 -2 -12 -5z"/>
<path d="M5288 8373 c7 -3 16 -2 19 1 4 3 -2 6 -13 5 -11 0 -14 -3 -6 -6z"/>
<path d="M5588 8373 c7 -3 16 -2 19 1 4 3 -2 6 -13 5 -11 0 -14 -3 -6 -6z"/>
<path d="M5105 8360 c19 -8 19 -9 1 -9 -11 -1 -17 -3 -14 -6 3 -3 20 -2 39 2
33 7 33 7 9 14 -36 10 -59 9 -35 -1z"/>
<path d="M5180 8360 c-13 -8 -12 -10 3 -10 9 0 17 5 17 10 0 12 -1 12 -20 0z"/>
<path d="M5468 8363 c17 -2 47 -2 65 0 17 2 3 4 -33 4 -36 0 -50 -2 -32 -4z"/>
<path d="M5805 8360 c27 -12 43 -12 25 0 -8 5 -22 9 -30 9 -10 0 -8 -3 5 -9z"/>
<path d="M5048 8353 c6 -2 18 -2 25 0 6 3 1 5 -13 5 -14 0 -19 -2 -12 -5z"/>
<path d="M5335 8345 c-148 -7 -277 -10 -285 -8 -13 4 -13 4 0 -6 12 -8 2 -11
-40 -12 -30 -1 -64 -1 -75 0 -11 1 -25 -6 -32 -15 -7 -9 -28 -17 -51 -17 -22
-1 -38 -5 -35 -9 2 -5 -2 -8 -11 -8 -8 0 -22 -3 -32 -7 -10 -3 -15 -2 -12 3 4
5 -5 9 -18 9 -21 0 -22 -2 -9 -11 13 -10 11 -13 -12 -19 -80 -20 -410 -162
-449 -194 -5 -4 -30 -19 -55 -32 -24 -13 -45 -27 -47 -31 -2 -5 -10 -8 -18 -8
-8 0 -14 -4 -14 -10 0 -5 -6 -10 -14 -10 -8 0 -16 -3 -18 -7 -6 -14 -208 -173
-219 -173 -5 0 -8 -4 -5 -8 7 -11 -68 -84 -77 -76 -4 4 -7 1 -7 -7 -1 -15 -34
-59 -45 -59 -3 0 -4 4 0 9 9 15 -15 25 -28 12 -9 -9 -7 -10 8 -5 l20 7 -20
-24 c-15 -18 -16 -20 -2 -10 24 19 21 2 -5 -27 l-23 -24 25 7 c14 4 37 14 52
21 15 8 35 15 45 17 10 1 24 7 32 11 8 5 26 11 40 13 14 2 33 5 41 7 9 1 20 5
26 9 6 3 31 9 55 11 24 2 67 7 95 11 28 4 100 2 160 -5 127 -15 165 -14 176 3
4 7 8 8 8 4 0 -5 7 -2 15 5 34 31 43 36 49 31 3 -4 6 -1 6 5 0 7 7 12 15 12 8
0 15 4 15 8 0 10 80 48 92 45 5 -2 8 2 8 7 0 6 6 10 13 10 7 0 31 8 53 19 96
46 288 97 449 119 111 16 315 16 315 0 0 -10 2 -10 9 0 7 11 9 11 14 -2 4 -11
17 -15 39 -14 l33 1 -32 4 c-18 2 -33 9 -33 15 0 7 25 9 78 4 251 -23 516
-114 772 -265 l117 -70 -2 -38 c-2 -33 1 -38 20 -38 19 0 21 3 14 17 -6 10 -5
19 1 23 14 8 30 -37 19 -51 -6 -7 -4 -16 5 -23 11 -9 15 -8 20 4 3 8 2 15 -2
15 -4 0 -8 9 -9 21 -2 19 0 20 15 7 64 -52 107 -94 107 -102 0 -6 11 -16 25
-23 14 -7 21 -13 16 -13 -6 0 3 -13 19 -30 15 -16 33 -28 38 -27 6 1 11 -2 12
-8 1 -13 24 -53 25 -42 0 10 45 -31 46 -44 1 -5 2 -14 3 -20 0 -5 5 -8 10 -5
11 7 36 -22 28 -31 -4 -3 -2 -12 4 -20 9 -9 8 -17 0 -27 -10 -12 -8 -17 8 -25
11 -6 22 -7 25 -2 8 12 -4 20 -22 14 -14 -4 -13 -2 2 11 17 14 20 13 42 -19
42 -62 47 -75 33 -91 -6 -8 -8 -14 -4 -14 5 0 0 -9 -10 -20 -17 -18 -17 -20
-2 -14 10 3 17 1 17 -5 0 -6 -4 -11 -10 -11 -5 0 -10 -5 -10 -12 0 -9 3 -9 12
0 14 14 32 16 24 4 -6 -10 24 -9 40 0 5 4 28 -28 52 -73 23 -43 38 -79 32 -79
-5 0 -14 9 -20 21 -7 11 -14 19 -16 16 -5 -4 25 -67 32 -67 3 0 2 5 -1 10 -3
6 0 10 7 10 8 0 19 -13 25 -30 6 -16 7 -30 2 -30 -5 0 -9 -10 -9 -21 0 -17 3
-19 14 -10 11 9 19 -7 46 -86 18 -54 33 -115 34 -135 0 -21 4 -38 8 -38 5 0 7
-3 7 -7 -5 -29 3 -41 25 -39 13 0 24 6 23 11 -1 6 6 9 15 9 10 -1 16 2 13 6
-11 18 256 120 314 120 26 0 25 11 -10 131 -11 37 -18 73 -16 80 2 8 2 10 -1
5 -3 -5 -13 12 -24 38 -10 26 -15 52 -12 58 4 7 2 8 -4 4 -7 -4 -12 -2 -12 3
0 6 -32 77 -71 158 -39 82 -76 158 -81 170 -6 11 -7 26 -4 32 5 7 1 8 -10 4
-14 -5 -16 -3 -11 11 4 10 3 15 -3 11 -6 -3 -10 -2 -10 3 0 6 -16 33 -35 62
-39 58 -43 69 -17 49 15 -13 16 -12 4 3 -8 9 -19 15 -27 12 -8 -3 -16 4 -20
17 -4 12 -30 44 -58 71 -27 26 -47 48 -43 48 4 0 -14 19 -39 43 -25 24 -43 46
-40 50 3 4 2 5 -1 2 -12 -8 -46 17 -40 30 3 8 -3 17 -15 20 -10 4 -17 10 -14
15 3 5 -8 16 -25 25 -18 9 -28 21 -24 27 4 7 3 8 -4 4 -6 -4 -21 7 -33 24 -13
16 -28 30 -34 30 -13 0 -56 46 -49 53 2 2 -4 10 -13 18 -16 13 -17 12 -4 -3
16 -21 12 -22 -22 -5 -21 11 -24 16 -14 27 10 10 9 11 -2 5 -11 -6 -13 -4 -8
8 3 9 2 19 -3 22 -6 4 -10 -1 -10 -10 0 -9 -4 -14 -10 -10 -5 3 -6 13 -3 21 4
10 1 15 -8 13 -20 -4 -69 22 -63 33 3 5 0 8 -7 6 -25 -5 -78 34 -74 54 3 15 1
16 -16 8 -13 -7 -19 -7 -19 -1 0 6 -11 13 -25 17 -14 3 -22 11 -18 17 3 5 2 7
-4 4 -10 -7 -138 57 -148 74 -4 5 -10 7 -15 4 -5 -3 -34 6 -65 20 -30 15 -60
23 -67 19 -7 -5 -9 -2 -6 7 4 11 -1 15 -21 14 -14 0 -28 2 -31 5 -14 16 -113
49 -179 60 -50 8 -80 19 -90 31 -18 21 -81 38 -81 21 0 -6 10 -13 23 -16 12
-2 -5 -2 -38 1 -33 3 -62 8 -65 12 -5 6 -27 8 -122 13 -20 2 -34 6 -32 10 3 5
4 7 2 7 -2 -1 -124 -7 -273 -14z"/>
<path d="M6125 8310 c-3 -6 1 -7 9 -4 18 7 21 14 7 14 -6 0 -13 -4 -16 -10z"/>
<path d="M4770 8300 c-18 -12 -2 -12 25 0 13 6 15 9 5 9 -8 0 -22 -4 -30 -9z"/>
<path d="M6140 8296 c0 -2 7 -7 16 -10 8 -3 12 -2 9 4 -6 10 -25 14 -25 6z"/>
<path d="M6344 8280 c0 -13 4 -16 10 -10 7 7 7 13 0 20 -6 6 -10 3 -10 -10z"/>
<path d="M4326 8122 c-3 -5 8 -6 25 -4 16 2 29 6 29 8 0 8 -49 4 -54 -4z"/>
<path d="M6565 8090 c-3 -5 3 -10 15 -10 12 0 18 5 15 10 -3 6 -10 10 -15 10
-5 0 -12 -4 -15 -10z"/>
<path d="M5608 7923 c6 -2 18 -2 25 0 6 3 1 5 -13 5 -14 0 -19 -2 -12 -5z"/>
<path d="M6865 7891 c-3 -5 -2 -12 3 -15 5 -3 9 1 9 9 0 17 -3 19 -12 6z"/>
<path d="M5768 7853 c7 -3 16 -2 19 1 4 3 -2 6 -13 5 -11 0 -14 -3 -6 -6z"/>
<path d="M5670 7840 c-9 -6 -10 -10 -3 -10 6 0 15 5 18 10 8 12 4 12 -15 0z"/>
<path d="M6046 7781 c-4 -5 3 -7 14 -4 23 6 26 13 6 13 -8 0 -17 -4 -20 -9z"/>
<path d="M6110 7780 c-9 -6 -10 -10 -3 -10 6 0 15 5 18 10 8 12 4 12 -15 0z"/>
<path d="M6066 7761 c-4 -7 -5 -15 -2 -18 9 -9 19 4 14 18 -4 11 -6 11 -12 0z"/>
<path d="M3776 7722 c-3 -5 1 -9 9 -9 8 0 12 4 9 9 -3 4 -7 8 -9 8 -2 0 -6 -4
-9 -8z"/>
<path d="M6280 7700 c8 -5 20 -10 25 -10 6 0 3 5 -5 10 -8 5 -19 10 -25 10 -5
0 -3 -5 5 -10z"/>
<path d="M6327 7669 c4 -13 8 -18 11 -10 2 7 -1 18 -6 23 -8 8 -9 4 -5 -13z"/>
<path d="M6372 7654 c10 -10 20 -16 22 -13 3 3 -5 11 -17 18 -21 13 -21 12 -5
-5z"/>
<path d="M6430 7621 c0 -6 4 -13 10 -16 6 -3 7 1 4 9 -7 18 -14 21 -14 7z"/>
<path d="M6400 7590 c0 -5 7 -7 15 -4 8 4 15 8 15 10 0 2 -7 4 -15 4 -8 0 -15
-4 -15 -10z"/>
<path d="M7224 7499 c-2 -4 4 -6 13 -5 10 2 23 -6 30 -18 11 -20 11 -20 10 5
-2 19 -7 25 -25 25 -13 0 -25 -3 -28 -7z"/>
<path d="M5580 7471 c0 -5 7 -11 14 -14 10 -4 13 -1 9 9 -6 15 -23 19 -23 5z"/>
<path d="M6626 7453 c-6 -14 -5 -15 5 -6 7 7 10 15 7 18 -3 3 -9 -2 -12 -12z"/>
<path d="M4725 7450 c-377 -4 -601 -10 -640 -18 -33 -6 -74 -13 -90 -15 -17
-2 -35 -6 -40 -9 -6 -3 -26 -9 -45 -14 -57 -13 -65 -16 -161 -65 -42 -21 -80
-35 -84 -31 -5 4 -5 1 -1 -5 4 -8 1 -13 -8 -13 -9 0 -16 -4 -16 -10 0 -5 -6
-7 -14 -4 -8 3 -16 -3 -19 -15 -3 -13 -13 -21 -26 -21 -12 0 -21 -5 -21 -12 0
-6 -30 -41 -67 -77 -38 -36 -74 -78 -82 -93 -8 -15 -19 -26 -25 -25 -6 1 -11
-5 -11 -13 0 -8 -2 -17 -6 -20 -5 -5 -43 -81 -44 -90 0 -3 -7 -16 -14 -29 -7
-13 -15 -37 -18 -54 -3 -17 -10 -42 -16 -56 -5 -14 -12 -37 -13 -51 -7 -54
-15 -146 -14 -165 0 -11 1 -40 1 -65 0 -24 3 -49 7 -55 3 -5 7 -14 8 -20 1 -5
5 -23 9 -40 4 -16 7 -38 8 -47 1 -10 5 -18 10 -18 4 0 6 -4 2 -9 -6 -11 15
-61 27 -61 4 0 7 -3 6 -7 -3 -14 13 -53 22 -53 5 0 12 -9 15 -20 4 -11 19 -34
35 -52 16 -17 26 -37 23 -44 -3 -8 0 -14 7 -14 6 0 29 -18 50 -40 21 -22 42
-40 47 -40 4 -1 23 -14 42 -30 22 -19 31 -33 25 -42 -6 -10 -4 -10 9 1 11 8
17 9 17 2 0 -6 11 -13 25 -17 14 -3 25 -11 26 -18 1 -27 18 33 18 69 1 61 32
214 45 228 7 7 11 18 8 25 -2 6 1 12 8 12 6 0 9 4 6 8 -3 5 2 21 10 36 13 27
12 30 -16 63 -17 19 -28 38 -25 44 4 5 0 12 -9 15 -13 5 -47 75 -45 92 1 4 0
12 -1 17 -7 25 -4 175 3 175 5 0 5 10 2 21 -5 16 -4 19 6 14 9 -6 11 -2 7 13
-3 12 0 26 7 32 8 6 17 25 20 41 4 16 11 29 17 29 6 0 9 3 5 6 -10 11 23 36
38 30 12 -4 13 -2 5 13 -10 20 10 48 24 33 4 -4 6 0 4 8 -2 8 2 14 9 13 7 -2
17 6 23 17 6 11 16 20 23 20 7 0 25 11 41 25 16 13 33 22 37 19 5 -3 9 0 9 6
0 6 5 8 10 5 6 -3 10 -2 10 4 0 6 7 8 15 5 8 -4 15 -1 15 6 0 7 8 10 20 7 10
-3 20 -1 22 4 9 24 167 30 733 26 325 -2 611 -6 636 -10 89 -11 309 -124 302
-155 -1 -5 5 -9 15 -8 11 1 17 -6 17 -19 1 -11 6 -19 12 -18 7 2 23 -11 37
-28 31 -37 94 -148 99 -175 2 -10 9 -31 15 -47 38 -91 36 -384 -2 -469 -5 -10
-9 -29 -10 -43 0 -16 -6 -23 -14 -20 -10 3 -11 -1 -7 -16 7 -22 3 -34 -43
-128 -15 -29 -26 -58 -24 -63 2 -6 -4 -8 -13 -4 -9 3 -13 2 -10 -4 7 -12 -34
-100 -47 -100 -4 0 -8 -5 -8 -12 0 -18 -50 -79 -61 -73 -5 4 -9 -2 -9 -12 0
-10 -13 -31 -29 -48 -17 -16 -49 -50 -73 -75 -52 -54 -98 -93 -98 -82 0 4 -7
-2 -16 -13 -8 -11 -19 -21 -24 -21 -6 -1 -14 -2 -20 -3 -5 0 -10 -8 -10 -17 0
-8 -4 -13 -9 -10 -5 3 -11 -1 -15 -9 -3 -8 -12 -15 -19 -15 -30 0 -74 -53 -83
-101 -7 -36 -25 -70 -38 -75 -9 -3 -12 -12 -9 -21 4 -9 -1 -22 -12 -29 -10 -8
-16 -14 -12 -14 3 0 1 -13 -4 -30 -6 -16 -15 -30 -19 -30 -4 0 -11 -11 -14
-25 -4 -14 -11 -25 -16 -25 -6 0 -10 -5 -10 -11 0 -26 -145 -184 -227 -248
-24 -18 -43 -38 -43 -44 0 -8 3 -7 9 2 6 9 22 12 50 9 27 -2 41 0 41 8 0 13
46 28 60 19 5 -3 11 -1 15 5 4 6 10 8 15 5 5 -3 11 -1 15 4 3 6 12 8 20 4 8
-3 15 0 15 6 0 6 7 8 15 5 8 -4 15 -2 15 4 0 6 8 9 18 7 9 -1 29 6 45 17 15
11 27 17 27 13 0 -3 15 2 33 12 17 9 35 16 40 15 4 -1 7 3 7 9 0 5 5 7 10 4 6
-3 10 -1 10 4 0 6 3 10 8 10 22 -4 42 2 37 11 -6 9 8 14 28 11 4 0 7 4 7 10 0
5 4 8 9 4 5 -3 16 1 24 9 8 8 17 12 21 9 3 -3 8 2 12 11 3 9 12 16 20 16 8 0
14 5 14 11 0 5 5 7 10 4 6 -3 10 -1 10 4 0 6 7 11 15 11 8 0 15 5 15 11 0 5 4
8 9 5 5 -3 19 4 33 17 13 12 27 23 32 23 4 1 24 16 43 33 19 17 39 28 44 25 5
-3 9 -2 7 3 -2 11 84 99 94 95 4 -1 7 4 6 10 -2 7 3 12 10 10 8 -1 11 1 8 6
-7 12 38 54 49 45 4 -5 5 -3 2 3 -4 6 14 30 38 52 25 22 45 45 45 50 0 5 12
17 26 27 14 9 23 19 20 22 -3 3 6 14 19 25 14 11 23 24 20 29 -4 5 -1 9 4 9 6
0 17 16 25 35 8 19 20 35 26 35 6 0 8 5 5 10 -3 6 -2 10 3 10 6 0 17 18 26 40
9 22 21 40 27 40 5 0 7 5 4 10 -3 6 -1 10 5 10 6 0 8 5 5 10 -3 6 -2 10 4 10
10 0 27 38 23 53 -1 4 2 7 8 7 5 0 7 7 4 15 -4 8 -1 15 6 15 6 0 8 5 5 10 -3
6 2 10 12 10 15 0 16 2 3 10 -10 6 -11 10 -2 10 6 0 11 3 11 8 -1 4 0 9 1 12
1 3 3 13 5 23 2 10 7 26 11 35 4 9 8 20 8 24 1 3 4 9 8 13 4 4 4 13 1 21 -3 8
0 14 7 14 7 0 10 7 6 15 -3 8 -1 15 4 15 5 0 7 7 4 15 -4 8 -2 21 4 28 5 6 9
19 9 27 0 8 6 76 12 150 12 150 2 324 -25 438 -8 37 -17 75 -19 84 -10 46
-110 232 -163 305 -33 45 -59 84 -56 87 2 3 1 4 -3 1 -4 -3 -26 13 -50 37 -29
28 -39 45 -33 53 7 8 5 12 -5 12 -8 0 -12 -4 -9 -9 10 -16 -9 -8 -45 20 -20
16 -62 43 -94 61 -31 18 -62 41 -67 52 -7 12 -20 19 -38 18 -15 -1 -62 10
-104 25 -42 14 -84 26 -93 26 -9 0 -14 4 -11 9 4 5 -4 7 -16 3 -14 -3 -19 -2
-14 6 4 7 1 12 -8 12 -8 0 -16 -5 -18 -11 -3 -8 -10 -6 -20 5 -19 19 -53 22
-42 4 5 -8 2 -9 -10 -5 -10 4 -32 7 -49 8 -31 1 -31 1 -7 9 24 8 24 8 -5 7
-16 -1 -291 -4 -610 -7z"/>
<path d="M7310 7436 c0 -2 8 -10 18 -17 15 -13 16 -12 3 4 -13 16 -21 21 -21
13z"/>
<path d="M7346 7427 c3 -10 9 -15 12 -12 3 3 0 11 -7 18 -10 9 -11 8 -5 -6z"/>
<path d="M6638 7393 c-28 -7 -22 -33 6 -31 17 2 22 6 16 14 -6 6 -7 14 -3 17
3 4 4 6 2 6 -2 -1 -12 -3 -21 -6z"/>
<path d="M5920 7255 c19 -14 39 -25 44 -24 6 0 5 3 -2 6 -6 2 -10 9 -7 14 4 5
0 6 -8 3 -8 -3 -20 2 -27 11 -7 8 -17 15 -23 15 -6 0 4 -11 23 -25z"/>
<path d="M5980 7270 c-9 -6 -10 -10 -3 -10 6 0 15 5 18 10 8 12 4 12 -15 0z"/>
<path d="M6856 7212 c-2 -4 4 -9 15 -9 11 -1 17 2 14 8 -7 11 -22 12 -29 1z"/>
<path d="M6057 7194 c-3 -3 -3 -12 0 -20 7 -20 -7 -17 -23 4 -13 15 -13 15 -8
0 3 -9 18 -25 32 -34 19 -12 24 -13 16 -3 -5 8 -9 24 -8 37 1 24 1 25 -9 16z"/>
<path d="M7453 7174 c-3 -8 2 -23 11 -32 10 -10 16 -12 16 -4 0 7 7 12 15 12
12 0 12 3 -2 20 -21 24 -32 25 -40 4z"/>
<path d="M6873 7080 c0 -25 2 -35 4 -22 2 12 2 32 0 45 -2 12 -4 2 -4 -23z"/>
<path d="M7502 7085 c0 -16 2 -22 5 -12 2 9 2 23 0 30 -3 6 -5 -1 -5 -18z"/>
<path d="M6960 7076 c0 -2 8 -10 18 -17 15 -13 16 -12 3 4 -13 16 -21 21 -21
13z"/>
<path d="M7597 7050 c-3 -11 -11 -19 -17 -18 -7 2 -14 -2 -17 -9 -3 -7 3 -9
16 -6 12 3 21 9 21 14 0 5 10 9 21 9 18 0 19 2 9 15 -17 20 -27 19 -33 -5z"/>
<path d="M7520 7029 c0 -21 27 -56 36 -46 5 4 4 11 -2 15 -6 4 -16 16 -22 27
-9 15 -11 16 -12 4z"/>
<path d="M7660 7015 c0 -8 5 -15 10 -15 6 0 10 7 10 15 0 8 -4 15 -10 15 -5 0
-10 -7 -10 -15z"/>
<path d="M7050 6933 c0 -6 5 -15 10 -18 16 -10 12 -25 -5 -19 -8 4 -15 1 -15
-7 0 -7 3 -9 7 -6 3 4 12 2 20 -5 24 -19 26 0 4 34 -11 18 -21 28 -21 21z"/>
<path d="M7912 6840 c0 -19 2 -27 5 -17 2 9 2 25 0 35 -3 9 -5 1 -5 -18z"/>
<path d="M7070 6821 c0 -5 7 -12 16 -15 14 -5 15 -4 4 9 -14 17 -20 19 -20 6z"/>
<path d="M4748 6002 l2 -811 -22 -7 c-13 -5 -25 -8 -28 -9 -3 0 -15 -6 -27
-13 -12 -6 -30 -13 -40 -15 -10 -1 -22 -5 -28 -9 -41 -25 -393 -57 -406 -37
-3 5 -35 11 -72 13 -36 2 -70 6 -74 9 -4 2 -23 5 -42 5 -19 0 -37 6 -41 13 -4
6 -13 8 -19 5 -6 -4 -11 -2 -11 4 0 7 -6 10 -14 7 -8 -3 -16 -1 -18 5 -2 6
-16 12 -31 13 -15 2 -34 11 -43 20 -9 9 -29 19 -45 22 -16 3 -39 16 -52 29
-12 13 -30 24 -39 24 -10 0 -18 5 -18 10 0 6 -6 10 -14 10 -21 0 -89 67 -81
79 4 7 0 8 -10 5 -17 -7 -58 23 -50 36 5 9 -25 37 -34 31 -3 -2 -10 5 -16 15
-5 10 -17 24 -26 31 -9 7 -31 35 -48 62 -24 38 -36 48 -51 44 -11 -3 -20 -8
-20 -12 0 -6 -22 -18 -127 -69 -22 -11 -44 -18 -47 -15 -3 4 -6 0 -6 -7 0 -7
-3 -10 -7 -7 -3 4 -11 3 -17 -2 -6 -4 -35 -16 -63 -25 -29 -10 -53 -20 -53
-23 0 -9 35 -68 43 -71 4 -2 7 -10 7 -18 0 -8 5 -14 11 -14 5 0 8 -4 4 -9 -3
-5 4 -16 16 -24 11 -8 21 -21 23 -28 3 -22 48 -79 58 -73 4 3 8 -1 8 -8 0 -15
186 -199 193 -191 3 2 15 -9 28 -26 12 -17 26 -28 31 -25 4 3 8 0 8 -5 0 -6 7
-11 15 -11 8 0 15 -4 15 -10 0 -5 6 -10 13 -10 7 0 23 -9 34 -19 12 -11 24
-17 27 -14 3 4 6 1 6 -5 0 -6 16 -16 35 -22 19 -6 35 -16 35 -21 0 -5 8 -9 18
-9 9 0 26 -7 36 -15 10 -8 23 -12 27 -9 5 3 9 0 9 -6 0 -6 4 -9 9 -5 5 3 12 1
16 -5 4 -6 11 -8 16 -5 5 4 9 1 9 -5 0 -7 6 -10 14 -7 8 3 20 -1 26 -9 7 -8
23 -12 36 -10 13 3 24 0 24 -5 0 -6 9 -7 21 -4 16 5 19 4 14 -5 -6 -10 1 -11
29 -6 23 5 36 3 36 -4 0 -7 21 -11 53 -11 28 1 77 1 107 1 121 0 155 2 166 11
5 4 23 6 38 3 19 -3 25 -1 21 7 -5 8 -1 9 14 4 11 -3 21 -2 21 3 0 6 9 8 20 5
11 -3 20 0 20 6 0 6 3 10 8 10 4 -1 10 0 15 1 4 1 10 3 15 5 4 1 21 7 37 14
17 7 37 14 45 16 9 2 39 17 68 34 29 17 52 27 52 24 0 -4 7 2 15 13 8 10 15
15 15 10 0 -6 7 -1 15 10 8 10 15 15 15 10 0 -6 6 -1 14 10 8 10 18 19 23 19
4 0 17 9 29 20 12 11 30 27 40 36 24 20 164 169 164 174 0 3 15 28 34 57 27
44 62 123 101 233 13 35 14 60 21 713 l7 642 -115 0 c-63 0 -155 3 -204 6
l-89 7 3 -811z"/>
<path d="M7130 6770 c0 -5 5 -10 11 -10 5 0 7 5 4 10 -3 6 -8 10 -11 10 -2 0
-4 -4 -4 -10z"/>
<path d="M7650 6761 c0 -3 4 -12 9 -19 6 -11 9 -9 13 5 3 12 0 20 -8 20 -8 0
-14 -3 -14 -6z"/>
<path d="M7656 6707 c3 -10 9 -15 12 -12 3 3 0 11 -7 18 -10 9 -11 8 -5 -6z"/>
<path d="M7161 6684 c0 -11 3 -14 6 -6 3 7 2 16 -1 19 -3 4 -6 -2 -5 -13z"/>
<path d="M7182 6623 c2 -9 8 -18 15 -20 7 -3 9 3 6 16 -6 25 -26 28 -21 4z"/>
<path d="M7675 6630 c-3 -5 -1 -10 4 -10 6 0 11 5 11 10 0 6 -2 10 -4 10 -3 0
-8 -4 -11 -10z"/>
<path d="M8248 6553 c7 -3 16 -2 19 1 4 3 -2 6 -13 5 -11 0 -14 -3 -6 -6z"/>
<path d="M7638 6543 c7 -3 16 -2 19 1 4 3 -2 6 -13 5 -11 0 -14 -3 -6 -6z"/>
<path d="M7595 6530 c3 -5 14 -10 23 -10 15 0 15 2 2 10 -20 13 -33 13 -25 0z"/>
<path d="M8290 6520 c0 -5 7 -10 15 -10 8 0 15 5 15 10 0 6 -7 10 -15 10 -8 0
-15 -4 -15 -10z"/>
<path d="M7568 6513 c7 -3 16 -2 19 1 4 3 -2 6 -13 5 -11 0 -14 -3 -6 -6z"/>
<path d="M7518 6503 c7 -3 16 -2 19 1 4 3 -2 6 -13 5 -11 0 -14 -3 -6 -6z"/>
<path d="M7638 6493 c7 -3 16 -2 19 1 4 3 -2 6 -13 5 -11 0 -14 -3 -6 -6z"/>
<path d="M7215 6479 c-4 -6 -5 -12 -2 -15 2 -3 7 2 10 11 7 17 1 20 -8 4z"/>
<path d="M8248 6483 c7 -3 16 -2 19 1 4 3 -2 6 -13 5 -11 0 -14 -3 -6 -6z"/>
<path d="M7227 6429 c4 -13 9 -17 15 -11 11 11 3 32 -12 32 -4 0 -6 -9 -3 -21z"/>
<path d="M7395 6440 c3 -5 8 -10 11 -10 2 0 4 5 4 10 0 6 -5 10 -11 10 -5 0
-7 -4 -4 -10z"/>
<path d="M7355 6420 c-3 -6 1 -7 9 -4 18 7 21 14 7 14 -6 0 -13 -4 -16 -10z"/>
<path d="M7844 6404 c6 -14 -7 -16 -113 -13 -65 2 -114 1 -108 -3 8 -5 4 -8
-9 -8 -11 0 -42 -7 -68 -16 -38 -13 -50 -14 -56 -4 -11 18 -44 8 -54 -16 -5
-12 -31 -30 -56 -41 -43 -18 -48 -19 -59 -4 -6 9 -9 11 -6 4 3 -6 -1 -14 -7
-16 -9 -4 -8 -6 2 -6 8 -1 -7 -12 -35 -26 -27 -14 -55 -23 -62 -21 -7 3 -12 1
-10 -5 1 -6 -16 -20 -38 -32 -22 -12 -41 -25 -43 -29 -2 -5 -10 -8 -17 -8 -7
0 -15 -7 -19 -15 -3 -8 -12 -15 -21 -15 -8 0 -15 -4 -15 -10 0 -5 -12 -16 -27
-24 -16 -8 -43 -28 -61 -46 -26 -24 -36 -29 -47 -20 -11 9 -12 7 -9 -7 6 -22
-70 -88 -88 -77 -7 4 -8 3 -4 -5 5 -8 -35 -55 -110 -129 -64 -64 -121 -118
-125 -118 -22 -3 -23 -5 -12 -12 7 -4 -6 -24 -39 -57 -28 -28 -48 -42 -44 -32
3 11 2 16 -4 12 -6 -4 -9 -13 -8 -21 2 -8 -14 -31 -34 -52 -20 -20 -67 -70
-104 -109 -37 -40 -71 -70 -77 -66 -6 4 -7 1 -2 -6 9 -16 -71 -95 -87 -85 -6
4 -8 3 -5 -4 4 -5 -11 -33 -33 -61 -29 -36 -45 -49 -57 -44 -11 4 -14 3 -9 -5
4 -7 -16 -34 -47 -67 -30 -30 -52 -55 -49 -55 3 0 -9 -16 -28 -35 -18 -19 -38
-31 -43 -28 -6 3 -7 1 -4 -4 4 -6 -5 -19 -18 -29 -14 -10 -25 -23 -25 -29 0
-5 -37 -48 -82 -94 -229 -233 -293 -296 -300 -293 -4 1 -8 -3 -8 -8 0 -6 -13
-18 -29 -28 -15 -9 -30 -21 -32 -27 -2 -5 -7 -9 -11 -8 -4 2 -12 -6 -18 -17
-6 -11 -17 -20 -26 -20 -8 0 -26 -11 -39 -24 -13 -13 -26 -21 -29 -18 -3 3 -6
0 -6 -6 0 -7 -7 -12 -15 -12 -8 0 -15 -5 -15 -11 0 -5 -4 -8 -9 -5 -5 4 -11 3
-13 -1 -4 -10 -80 -47 -90 -45 -5 1 -8 -2 -8 -7 0 -8 -16 -14 -72 -27 -31 -7
-52 -13 -83 -22 -34 -10 -281 -8 -308 3 -10 4 -21 5 -24 1 -3 -3 -12 -1 -19 5
-8 6 -20 9 -28 6 -8 -3 -17 -3 -20 1 -4 3 -12 7 -19 8 -7 2 -25 6 -42 9 -16 3
-33 12 -37 18 -4 7 -8 8 -8 3 0 -5 -7 -2 -17 5 -9 8 -18 12 -20 10 -7 -6 -63
21 -63 31 0 5 -4 7 -9 4 -4 -3 -16 3 -26 14 -10 11 -21 17 -26 14 -4 -2 -13 5
-19 16 -6 11 -14 19 -18 18 -16 -3 -41 15 -35 25 3 6 1 7 -5 3 -7 -4 -19 -3
-28 2 -10 5 -32 6 -53 1 -41 -10 -246 6 -306 23 -22 6 -44 12 -50 14 -46 9
-105 29 -130 42 -16 9 -35 17 -41 18 -6 1 -21 5 -33 9 -16 5 -20 3 -15 -9 3
-9 10 -16 15 -16 5 0 9 -6 9 -14 0 -7 11 -25 24 -39 13 -14 22 -28 19 -31 -3
-2 5 -10 17 -16 12 -6 19 -14 16 -17 -3 -3 9 -23 27 -43 57 -66 72 -85 69 -92
-1 -5 3 -8 8 -8 6 0 10 6 11 13 0 6 4 1 10 -11 5 -13 18 -26 30 -29 14 -4 17
-8 9 -13 -8 -5 1 -12 24 -20 20 -6 34 -15 31 -20 -3 -4 2 -13 10 -20 8 -7 15
-9 15 -4 0 5 7 -2 16 -14 8 -12 20 -20 25 -17 5 4 9 1 9 -4 0 -6 4 -11 9 -11
12 0 105 -61 109 -72 2 -4 10 -8 18 -8 8 0 14 -5 14 -11 0 -5 5 -7 10 -4 6 3
10 2 10 -2 0 -5 16 -15 35 -22 19 -7 35 -17 35 -22 0 -6 4 -7 10 -4 6 3 10 1
10 -5 0 -6 5 -8 10 -5 6 3 10 1 10 -5 0 -6 5 -8 10 -5 6 3 10 1 10 -5 0 -6 6
-10 13 -8 18 4 127 -34 121 -43 -2 -4 6 -5 18 -1 14 3 19 2 14 -6 -5 -8 0 -11
11 -10 35 3 54 -2 48 -12 -4 -6 7 -10 27 -10 71 0 88 -2 82 -11 -11 -18 403
-15 422 4 4 3 17 4 29 1 13 -3 26 -1 29 4 3 6 15 8 26 5 12 -3 20 0 20 7 0 7
8 9 20 5 11 -4 20 -2 20 4 0 6 7 8 15 5 8 -4 15 -1 15 7 0 7 3 9 7 6 3 -4 12
-2 20 4 7 6 13 9 13 6 0 -3 12 0 27 8 15 8 30 12 35 9 4 -3 8 0 8 5 0 6 3 10
8 9 4 -1 22 6 40 15 17 10 32 15 32 12 0 -4 7 1 16 9 8 9 21 16 29 16 7 0 15
5 17 10 2 6 14 12 28 15 14 3 30 11 36 20 6 8 14 12 17 8 4 -3 9 2 13 11 3 9
13 16 20 16 8 0 17 7 20 15 4 8 10 13 14 10 5 -3 17 6 28 20 11 14 25 25 31
25 6 0 18 11 27 25 9 14 20 23 24 20 4 -3 25 16 46 40 21 25 45 45 53 45 8 0
11 3 8 7 -4 3 3 11 16 17 12 7 22 18 22 26 1 8 7 14 14 12 7 -1 10 2 6 7 -3 6
8 20 25 32 16 13 30 28 30 34 0 7 12 17 26 23 14 7 23 16 20 21 -8 12 19 33
29 23 5 -4 5 -2 2 4 -4 6 18 35 48 63 30 29 55 55 55 58 0 3 23 27 51 53 28
26 51 52 50 56 0 5 4 9 9 9 6 0 10 3 10 8 0 4 20 28 45 52 25 25 45 48 45 51
0 6 88 99 191 203 42 42 79 84 82 94 4 10 11 15 17 12 5 -3 10 0 10 8 0 16 44
59 53 52 4 -3 5 -2 2 1 -4 7 85 94 97 94 3 0 11 13 16 30 8 21 16 28 26 24 11
-4 16 0 16 11 0 23 71 96 84 88 6 -4 8 -3 4 1 -11 13 284 301 306 298 11 -2
16 1 12 7 -4 6 -2 11 4 11 7 0 9 7 6 15 -3 9 1 18 11 22 9 3 32 24 51 45 19
21 38 36 42 33 4 -2 16 7 26 20 19 25 41 35 28 13 -6 -10 -5 -10 8 -1 8 7 19
9 24 5 4 -4 3 0 -4 9 -10 14 -6 21 30 45 24 16 46 27 51 26 4 -1 7 3 7 8 0 6
12 16 28 23 15 6 36 20 47 30 13 12 28 16 45 12 17 -4 21 -3 11 3 -16 11 -3
21 22 17 9 -2 15 1 11 6 -5 8 9 13 29 10 4 0 7 5 7 12 0 8 4 7 10 -3 8 -12 10
-12 10 5 0 15 3 17 9 7 7 -11 9 -11 14 1 3 7 27 20 54 27 26 7 66 23 89 36 25
14 45 19 50 14 14 -14 8 138 -6 155 -10 12 -10 15 1 15 16 1 -27 40 -44 40 -6
0 -2 -7 9 -15 10 -8 14 -15 7 -15 -6 0 -19 8 -29 18 -17 16 -17 17 9 20 42 5
31 22 -14 22 -34 0 -40 -3 -35 -16z"/>
<path d="M7946 6379 c9 -10 13 -22 10 -27 -3 -5 4 -18 16 -28 12 -11 18 -13
14 -6 -4 7 -2 12 5 12 7 0 2 11 -11 25 -13 14 -20 28 -17 32 4 3 14 -2 22 -13
8 -10 15 -14 15 -7 0 16 -20 28 -47 28 -21 1 -21 0 -7 -16z"/>
<path d="M7450 6386 c0 -8 51 -13 56 -5 3 5 -9 9 -25 9 -17 0 -31 -2 -31 -4z"/>
<path d="M7335 6330 c-3 -5 -1 -10 5 -10 6 0 8 -5 4 -12 -5 -7 -3 -8 7 -2 8 4
20 9 27 10 19 3 27 13 18 21 -4 4 -11 1 -15 -6 -6 -9 -11 -10 -15 -2 -9 14
-23 14 -31 1z"/>
<path d="M7270 6280 c-9 -6 -10 -10 -3 -10 6 0 15 5 18 10 8 12 4 12 -15 0z"/>
<path d="M4186 6229 c-14 -4 -26 -5 -26 -2 0 3 -7 0 -15 -7 -8 -7 -15 -9 -15
-6 0 4 -15 -3 -32 -16 -18 -12 -39 -23 -47 -23 -8 0 -15 -9 -17 -20 -2 -11
-10 -25 -18 -31 -9 -6 -16 -19 -16 -28 0 -9 -4 -16 -8 -16 -4 0 -9 -14 -10
-32 -2 -17 -7 -37 -12 -43 -7 -8 -5 -28 4 -59 8 -27 12 -54 9 -62 -3 -8 0 -14
6 -14 6 0 11 -7 11 -15 0 -8 4 -15 9 -15 5 0 18 -16 30 -35 11 -19 27 -35 36
-35 8 0 15 -5 15 -11 0 -5 5 -7 10 -4 6 3 10 2 10 -2 0 -5 17 -10 37 -11 21
-2 57 -7 80 -13 28 -6 49 -6 61 1 9 5 34 16 55 24 20 8 37 20 37 26 0 6 12 15
26 20 14 6 23 14 20 19 -3 5 1 14 9 21 8 7 15 19 15 27 0 8 3 12 8 10 4 -3 8
7 9 21 1 15 3 54 6 87 2 33 1 62 -2 65 -3 3 -15 22 -25 43 -18 34 -69 96 -81
97 -17 1 -35 14 -35 25 0 8 -8 11 -20 8 -11 -3 -28 -2 -37 3 -24 10 -55 11
-87 3z"/>
<path d="M9290 6200 c0 -29 4 -40 15 -40 11 0 15 11 15 40 0 29 -4 40 -15 40
-11 0 -15 -11 -15 -40z"/>
<path d="M7130 6220 c-9 -6 -10 -10 -3 -10 6 0 15 5 18 10 8 12 4 12 -15 0z"/>
<path d="M7973 6205 c-3 -9 -3 -18 -1 -21 3 -3 8 4 11 16 6 23 -1 27 -10 5z"/>
<path d="M7021 6141 c-10 -6 -9 -10 3 -14 8 -3 18 -2 21 3 8 13 -9 20 -24 11z"/>
<path d="M9615 6003 c8 -80 15 -108 15 -57 0 16 3 53 6 82 6 45 4 52 -10 52
-16 0 -17 -8 -11 -77z"/>
<path d="M9673 5995 c0 -44 2 -61 4 -37 2 23 2 59 0 80 -2 20 -4 1 -4 -43z"/>
<path d="M9703 5880 c0 -25 2 -35 4 -22 2 12 2 32 0 45 -2 12 -4 2 -4 -23z"/>
<path d="M9863 5880 c0 -25 2 -35 4 -22 2 12 2 32 0 45 -2 12 -4 2 -4 -23z"/>
<path d="M9913 5880 c0 -25 2 -35 4 -22 2 12 2 32 0 45 -2 12 -4 2 -4 -23z"/>
<path d="M9943 5880 c0 -25 2 -35 4 -22 2 12 2 32 0 45 -2 12 -4 2 -4 -23z"/>
<path d="M10170 5891 c0 -16 -3 -43 -6 -60 -6 -31 -6 -31 35 -31 l41 0 -2 58
c-1 42 -2 47 -5 20 -6 -54 -33 -52 -33 2 0 29 -4 40 -15 40 -10 0 -15 -10 -15
-29z"/>
<path d="M9753 5875 c0 -22 2 -30 4 -17 2 12 2 30 0 40 -3 9 -5 -1 -4 -23z"/>
<path d="M7686 5822 c-2 -4 4 -8 14 -8 10 0 16 4 14 8 -3 4 -9 8 -14 8 -5 0
-11 -4 -14 -8z"/>
<path d="M7698 5790 c-20 -11 -40 -24 -43 -30 -3 -5 -11 -10 -17 -10 -6 0 -3
10 8 22 l19 22 -27 -20 c-15 -10 -25 -25 -23 -33 4 -9 0 -11 -10 -7 -9 3 -14
2 -10 -3 3 -5 -19 -28 -47 -51 -29 -22 -92 -80 -140 -127 -49 -48 -88 -82 -88
-77 0 6 6 16 13 23 6 8 0 6 -15 -4 -31 -19 -33 -26 -16 -43 13 -13 11 -14 -24
-16 -18 -1 -21 -8 -23 -42 -2 -46 -40 -134 -58 -134 -8 0 -8 -3 1 -12 8 -8 8
-16 -1 -32 -6 -12 -12 -23 -12 -26 0 -3 -24 -51 -53 -107 -28 -57 -49 -103
-45 -103 3 0 -3 -10 -15 -23 -12 -13 -19 -27 -15 -30 3 -4 1 -7 -5 -7 -7 0
-11 -3 -10 -7 3 -15 -14 -43 -26 -43 -6 0 -13 -10 -13 -22 -1 -13 -9 -28 -17
-34 -9 -6 -14 -13 -11 -16 2 -2 -8 -18 -24 -35 -15 -17 -31 -38 -34 -47 -4 -9
-13 -16 -20 -16 -20 0 -42 -27 -27 -32 6 -2 -8 -25 -32 -51 -24 -26 -65 -72
-92 -102 -27 -30 -54 -51 -59 -48 -6 3 -7 1 -4 -4 8 -13 -57 -65 -68 -55 -3 4
-5 1 -3 -6 1 -8 -6 -19 -17 -25 -11 -7 -26 -20 -33 -29 -7 -9 -19 -15 -26 -12
-8 3 -16 -3 -19 -15 -3 -12 -12 -21 -21 -21 -9 0 -16 -4 -16 -10 0 -5 -7 -10
-15 -10 -8 0 -15 -4 -15 -10 0 -5 -7 -10 -15 -10 -8 0 -15 -4 -15 -10 0 -5
-11 -12 -25 -16 -14 -3 -25 -10 -25 -16 0 -5 -4 -6 -10 -3 -5 3 -10 1 -10 -4
0 -6 -6 -11 -14 -11 -8 0 -16 -4 -18 -9 -1 -5 -10 -11 -18 -13 -8 -2 -21 -9
-28 -16 -8 -7 -18 -10 -23 -7 -5 4 -9 2 -9 -3 0 -9 -48 -26 -59 -22 -2 1 -7
-3 -10 -9 -4 -5 -22 -13 -41 -16 -19 -3 -37 -11 -41 -16 -3 -6 -12 -11 -20
-12 -8 -2 -20 -6 -26 -10 -7 -5 -18 -5 -23 -2 -6 4 -10 3 -9 -2 1 -4 0 -11 -1
-15 -1 -5 -3 -11 -4 -15 -4 -20 -63 -130 -78 -147 -10 -11 -18 -26 -18 -33 0
-8 -10 -18 -22 -23 -13 -5 -17 -9 -9 -9 13 -1 13 -3 0 -13 -8 -7 -32 -34 -52
-60 -20 -25 -70 -71 -111 -102 -41 -31 -78 -62 -82 -69 -6 -9 -4 -9 7 -1 8 6
21 12 29 12 36 3 118 12 155 18 22 3 52 6 68 7 15 0 27 4 27 9 0 4 11 6 25 2
15 -4 25 -2 25 5 0 6 15 11 34 11 19 0 37 4 41 10 3 5 11 7 19 4 7 -3 26 1 42
7 16 7 32 13 37 14 4 2 8 3 10 4 1 1 18 4 37 7 19 2 40 11 46 19 6 8 26 17 45
20 18 3 36 10 39 14 8 13 98 50 104 43 3 -3 6 0 6 6 0 7 3 11 8 10 10 -2 60
22 114 55 25 16 49 29 52 28 3 0 15 8 26 19 12 12 25 18 29 15 5 -2 12 2 15
11 3 8 10 12 16 9 6 -3 13 1 16 9 3 9 10 14 14 11 4 -3 10 2 14 10 3 8 12 15
21 15 8 0 15 5 15 10 0 6 8 13 18 17 18 7 39 24 74 61 12 12 27 22 34 22 8 0
18 9 24 20 6 11 17 20 25 20 8 0 14 3 13 8 -2 4 34 42 79 85 45 42 79 77 75
77 -3 0 0 6 7 13 6 6 17 12 24 12 7 0 12 6 12 13 0 8 7 19 16 25 8 7 18 20 22
30 3 9 11 17 17 17 5 0 10 7 10 15 0 9 7 18 15 21 8 4 15 12 15 20 0 7 9 18
20 24 11 6 20 18 20 26 0 10 6 14 14 11 9 -4 12 0 9 13 -3 10 4 23 16 32 12 8
18 18 14 21 -3 4 -1 7 6 7 7 0 10 4 7 8 -3 5 4 18 14 30 11 12 20 26 20 32 0
5 5 10 11 10 5 0 7 4 4 10 -3 5 3 17 14 27 11 9 18 20 15 25 -3 4 3 8 13 8 15
0 16 2 3 10 -11 7 -11 10 -2 10 7 0 10 5 7 10 -3 6 -1 10 5 10 6 0 9 4 6 9 -3
5 1 14 9 21 8 7 15 19 15 26 0 8 4 14 8 14 5 0 9 6 9 13 0 8 9 34 20 58 26 57
45 103 44 106 0 2 10 27 23 57 13 30 22 57 18 60 -3 3 0 6 7 6 7 0 9 5 6 10
-4 6 -2 16 3 23 6 7 11 15 11 20 1 4 1 8 2 10 0 1 2 9 4 17 2 8 17 76 34 151
31 139 73 419 62 419 -3 -1 -23 -10 -43 -20z"/>
<path d="M7265 5719 c-4 -6 -5 -12 -2 -15 2 -3 7 2 10 11 7 17 1 20 -8 4z"/>
<path d="M7530 5721 c0 -6 4 -13 10 -16 6 -3 7 1 4 9 -7 18 -14 21 -14 7z"/>
<path d="M7483 5673 c4 -3 -1 -16 -10 -27 -18 -21 -18 -21 4 -2 20 16 23 36 6
36 -4 0 -3 -3 0 -7z"/>
<path d="M5555 5530 c-16 -17 -16 -20 -3 -15 9 4 19 13 22 21 7 19 2 18 -19
-6z"/>
<path d="M6327 5489 c4 -13 8 -18 11 -10 2 7 -1 18 -6 23 -8 8 -9 4 -5 -13z"/>
<path d="M5515 5490 c-3 -5 -1 -10 4 -10 6 0 11 5 11 10 0 6 -2 10 -4 10 -3 0
-8 -4 -11 -10z"/>
<path d="M6319 5433 c-13 -16 -12 -17 4 -4 16 13 21 21 13 21 -2 0 -10 -8 -17
-17z"/>
<path d="M6847 5293 c3 -7 6 -13 8 -13 2 0 5 6 8 13 3 8 -1 14 -8 14 -7 0 -11
-6 -8 -14z"/>
<path d="M6896 4772 c-3 -5 1 -9 9 -9 8 0 12 4 9 9 -3 4 -7 8 -9 8 -2 0 -6 -4
-9 -8z"/>
</g>
</svg>
